<svg width="32" height="32" viewBox="0 0 32 32" xmlns="http://www.w3.org/2000/svg">
<path d="M19.7488 13.5C20.2813 13.5 20.5595 14.1163 20.2382 14.5144L20.1907 14.5669L16.4406 18.317C16.333 18.4246 16.1898 18.4892 16.0379 18.4988C15.886 18.5083 15.7359 18.4621 15.6156 18.3688L15.5569 18.317L11.8068 14.5669L11.7549 14.5081L11.7212 14.46L11.6874 14.4L11.6768 14.3775L11.6599 14.3356L11.6399 14.2681L11.6337 14.235L11.6274 14.1975L11.6249 14.1619V14.0881L11.6281 14.0519L11.6337 14.0144L11.6399 13.9819L11.6599 13.9144L11.6768 13.8725L11.7206 13.79L11.7612 13.7338L11.8068 13.6831L11.8656 13.6313L11.9137 13.5975L11.9737 13.5638L11.9962 13.5531L12.0381 13.5363L12.1056 13.5163L12.1387 13.51L12.1762 13.5037L12.2118 13.5012L19.7488 13.5Z" />
</svg>
